<svg width="174" height="156" viewBox="0 0 174 156" fill="none" xmlns="http://www.w3.org/2000/svg">
<g clip-path="url(#clip0_17_481)">
<path d="M154.307 139.24C153.881 139.577 159.871 147.701 156.496 148.048C156.447 146.911 156.15 145.799 155.626 144.789C154.66 142.778 150.493 137.387 149.498 136.285C148.619 135.214 147.423 134.449 146.082 134.098C146.662 130.827 151.215 135.646 151.575 135.142C151.728 134.913 148.559 131.207 146.414 131.994C145.196 132.416 144.413 134.055 145.085 135.945C146.16 138.981 153.082 147.373 153.524 147.811C154.666 148.882 155.881 149.619 157.343 149.094C161.568 146.93 154.644 138.969 154.307 139.24ZM151.436 143.276C150.131 141.608 146.245 136.873 146.05 134.758C148.26 135.488 149.657 138.005 151.925 140.989C153.491 143.112 155.444 145.37 155.778 147.933C154.228 147.357 152.656 144.768 151.441 143.276H151.436Z" fill="#161617"/>
<path d="M133.991 153.982C133.532 145.717 120.138 141.331 119.971 142.596C119.866 143.037 124.765 144.042 129.178 148.454C133.387 152.722 132.444 156.532 130.483 157.194C130.934 154.721 129.364 152.409 127.417 150.836C124.695 148.627 121.027 147.755 117.611 146.921C112.869 145.805 105.704 144.545 102.77 148.541C100.907 140.789 115.93 142.956 116.056 142.416C116.361 141.409 101.65 139.003 100.79 146.629C100.65 147.888 100.885 149.161 101.466 150.288C102.047 151.414 102.948 152.344 104.056 152.96C106.886 154.7 110.284 154.286 113.407 154.686C121.436 155.637 124.247 158.941 128.856 159.226C132.302 159.393 134.111 157.251 133.991 153.982ZM118.278 153.745C110.841 151.716 106.019 153.684 103.367 149.849C105.174 145.91 113.273 147.479 117.253 148.425C121.455 149.434 127.385 150.81 129.1 155.011C129.426 155.754 129.513 156.579 129.347 157.373C126.213 157.429 123.446 155.154 118.278 153.745V153.745Z" fill="#161617"/>
<path d="M97.9335 122.871C95.9446 119.288 89.8868 119.789 90.0043 120.39C90.0252 120.624 91.1857 120.592 92.864 121.104C94.7954 121.713 97.2836 123.076 96.7616 125.045C96.3901 126.56 96.5789 125.322 93.3198 123.986C88.7741 122.096 81.6549 122.801 79.5364 126.003C78.5464 124.117 80.0254 122.523 81.9185 121.584C83.4671 120.872 85.9205 120.059 83.7525 120.161C76.0538 120.612 76.2417 128.171 81.4626 129.168C83.4245 129.543 85.489 128.953 88.6549 128.954C90.9708 128.914 94.3099 129.807 96.5867 127.918C98.4146 126.452 98.7869 124.358 97.9335 122.871ZM88.6532 127.404C84.3214 127.404 81.8672 128.474 80.0811 126.728C81.8167 124.225 89.7381 122.557 95.8785 126.481C94.0689 128.209 91.4293 127.386 88.6532 127.404Z" fill="#161617"/>
<path d="M23.7552 143.734C21.9534 147.071 20.6997 149.905 20.3213 149.785C19.9733 149.673 20.6693 146.537 22.5354 143.075C24.4016 139.612 26.6592 137.318 26.9455 137.553C27.2508 137.808 25.5578 140.398 23.7552 143.734Z" fill="#161617"/>
<path d="M67.5119 145.638C63.2654 140.209 53.2526 145.418 53.7128 146.14C53.946 146.555 60.2152 143.821 64.2007 145.316C66.4731 146.368 66.5297 147.524 65.564 148.796C65.2917 149.155 64.3295 148.138 60.779 148.179C54.5611 148.23 47.903 151.78 44.7318 156.784C43.0988 156.042 42.8405 154.855 43.5834 153.217C45.0781 149.921 49.3089 147.656 49.1018 147.239C48.7939 146.513 40.6811 150.524 41.4458 155.551C42.0662 158.457 45.2469 159.353 48.4781 158.888C51.8667 158.369 71.5217 151.938 67.5119 145.638ZM45.8437 157.095C50.0876 151.945 57.9976 148.55 64.5765 149.807C61.3349 152.63 49.8996 157.679 45.8437 157.095Z" fill="#161617"/>
<path d="M119.475 133.704C118.116 132.295 118.423 130.895 119.609 130.636C121.33 130.551 123.031 131.03 124.455 131.999C125.934 132.956 128.949 135.147 124.034 132.755C121.241 131.395 119.506 131.84 119.784 131.829C119.784 131.829 119.778 131.817 119.79 131.886C119.736 133.436 128.25 137.762 127.043 134.852C126.485 133.681 127.014 134.095 127.445 134.596C128.408 135.715 127.373 138.615 121.308 134.992C120.637 134.655 120.019 134.221 119.475 133.704V133.704Z" fill="#161617"/>
<path d="M54.6823 130.359C52.4812 130.527 48.7045 131.962 49.9104 133.793C50.9613 135.34 53.9263 134.823 55.7768 134.41C60.9759 133.165 60.8002 129.983 54.6823 130.359ZM58.3659 132.389C56.485 133.707 48.3122 134.295 51.9392 132.254C55.5114 130.243 60.4652 130.916 58.3659 132.389Z" fill="#161617"/>
<path d="M78.6856 139.605C75.3109 142.658 72.6156 141.084 73.0733 139.194C73.2473 138.466 74.3026 137.341 73.7875 138.672C73.696 138.832 73.6438 139.012 73.6354 139.196C73.6269 139.38 73.6624 139.564 73.7389 139.732C73.8153 139.9 73.9306 140.047 74.0752 140.162C74.2198 140.276 74.3896 140.355 74.5705 140.391C75.7268 140.663 78.2567 138.938 78.4159 138.124C78.5212 137.299 78.5273 136.549 76.1035 137.335C71.7491 138.747 75.5815 136.605 76.9735 136.213C78.2419 135.952 79.2903 136.116 79.4765 137.402C79.5477 137.807 79.5123 138.222 79.3736 138.609C79.2349 138.995 78.9978 139.339 78.6856 139.605V139.605Z" fill="#161617"/>
<path d="M31.0243 156.931C29.5836 155.779 31.3828 153.636 33.302 152.842C34.8193 152.215 35.3526 152.88 35.2403 152.948C34.6651 152.988 34.1115 153.183 33.6378 153.512C31.4985 154.845 30.9408 156.599 32.4128 156.096C33.3214 155.718 34.134 155.142 34.7914 154.409C34.9967 154.233 35.1478 154.002 35.2273 153.743C35.3067 153.485 35.3113 153.209 35.2403 152.948C35.3273 152.713 36.2765 153.47 35.3917 154.862C34.5069 156.254 32.2919 157.945 31.0243 156.931Z" fill="#161617"/>
<path d="M145.963 157.671C145.788 157.964 145.512 158.182 145.187 158.284C144.862 158.386 144.51 158.365 144.2 158.224C142.142 157.448 140.973 154.513 141.545 153.855C141.758 153.563 141.733 153.984 141.818 154.239C142.22 155.213 142.861 156.069 143.683 156.729C144.988 157.811 145.701 157.265 144.423 155.448C143.992 154.839 142.902 153.585 142.12 153.637C141.881 153.651 141.753 153.8 141.685 153.761C141.63 153.753 141.598 153.458 141.988 153.245C143.396 152.484 146.892 155.758 145.963 157.671Z" fill="#161617"/>
<path d="M96.235 151.206C95.385 148.873 95.5747 147.307 95.693 147.314C96.0236 147.275 96.65 154.376 103.2 156.971C106.066 158.108 109.129 158.111 112.197 158.69C114.59 159.143 115.942 159.887 115.879 160.014C115.812 160.177 114.422 159.732 112.079 159.498C107.479 159.04 99.287 159.577 96.235 151.206Z" fill="#161617"/>
<path d="M82.3161 132.456C77.4354 131.911 74.8524 128.75 75.1708 128.503C75.4614 128.242 77.3719 130.831 82.4379 131.402C86.2947 131.837 90.442 131.061 90.4994 131.489C90.5446 131.836 85.8249 132.849 82.3161 132.456Z" fill="#161617"/>
<path d="M70.228 152.735C66.9081 156.617 60.129 159.652 59.8906 159.091C59.734 158.721 65.8754 155.765 69.1996 151.864C71.3285 149.365 71.5434 147.123 70.4368 144.671C69.7408 143.121 68.6533 141.729 68.8299 141.579C69.0622 141.381 75.4523 146.626 70.228 152.735Z" fill="#161617"/>
<path d="M121.136 138.126C118.333 136.727 116.646 134.427 116.892 134.211C117.139 133.996 118.893 135.813 121.61 137.177C124.327 138.541 126.837 138.802 126.823 139.116C126.808 139.483 123.945 139.53 121.136 138.126Z" fill="#161617"/>
<path d="M162.671 156.6C160.964 151.567 161.046 153.213 161.686 151.824C164.686 144.989 155.182 128.831 145.591 127.603C114.75 90.7722 58.4214 94.2818 29.2207 133.078C23.2064 131.544 16.2168 143.518 16.0072 148.959C15.9911 150.38 16.4137 151.771 17.2173 152.943C16.6118 154.335 16.0391 155.741 15.4991 157.162C14.4742 159.859 14.2141 162.229 14.7083 162.368C15.5661 162.612 17.4131 157.198 18.7277 154.136C22.5252 155.753 27.4146 149.511 26.6856 149.024C26.3315 148.787 21.6526 153.666 19.5141 152.49C15.1641 150.394 20.9348 139.817 23.8894 137.016C25.5424 135.411 28.7039 133.966 29.6314 135.385C31.0947 137.019 29.5731 143.528 30.0142 143.7C30.4909 143.899 31.8299 140.534 31.9047 137.712C53.2519 109.393 89.8876 100.084 120.746 114.337C126.879 117.156 128.337 118.339 128.422 118.2C128.466 118.131 125.594 116.358 125.524 116.317C95.3903 98.6753 55.3668 105.731 31.769 135.882C31.625 135.03 31.1809 134.259 30.517 133.707C59.2497 98.008 111.97 92.6688 143.679 127.592C143.021 127.659 142.383 127.857 141.803 128.174C141.223 128.492 140.712 128.923 140.301 129.441C136.942 133.844 143.828 142.669 144.329 142.31C144.832 141.972 139.227 133.621 141.744 130.553C142.681 129.358 144.39 129.248 145.876 129.532C147.791 129.977 149.577 130.864 151.089 132.121C155.552 135.671 159.73 141.849 160.374 148.423C160.685 151.586 158.799 153.171 156.425 153.006C153.866 152.815 151.775 150.553 149.936 148.81C146.907 145.892 143.463 143.08 148.973 149.705C151.004 152.08 153.134 154.508 156.255 154.82C157.479 154.958 158.714 154.683 159.763 154.037C160.165 155.081 160.545 156.133 160.906 157.193C163.299 164.202 164.291 161.344 162.671 156.6Z" fill="#161617"/>
<path d="M22.6374 100.956C22.4766 102.379 22.801 103.814 23.5581 105.029C24.3152 106.243 25.4604 107.167 26.8081 107.649C27.7225 107.981 28.7095 108.061 29.6651 107.879C30.6208 107.698 31.5099 107.262 32.2388 106.618C32.9677 105.973 33.5094 105.145 33.807 104.218C34.1047 103.292 34.1471 102.303 33.93 101.355C32.7172 95.6372 23.8162 94.6628 22.6374 100.956Z" fill="#4490FE"/>
<path d="M32.296 105.357C31.4585 106.385 30.2503 107.044 28.9319 107.189C27.6136 107.335 26.2908 106.956 25.249 106.135C22.9261 104.457 23.0314 102.046 22.6755 102.066C22.4311 102.078 22.2405 104.972 24.5608 106.987C25.435 107.778 26.518 108.301 27.6808 108.494C28.8437 108.686 30.0375 108.541 31.1201 108.075C32.2027 107.609 33.1285 106.841 33.7874 105.864C34.4462 104.886 34.8103 103.74 34.8364 102.562C34.8738 98.7239 31.4173 95.3771 27.5519 95.9939C24.7566 96.401 22.7669 98.4194 22.5502 100.226C22.4102 101.173 22.5729 101.678 22.6651 101.676C22.7843 101.68 22.8391 101.173 23.1323 100.382C23.9605 98.0001 27.578 96.4176 30.2576 97.7156C33.0477 99.0328 34.3135 102.834 32.296 105.357Z" fill="#A1C7FE"/>
<path d="M29.8092 111.419C37.3782 110.744 40.7504 101.919 35.5173 96.0313C33.9843 94.288 31.8539 93.182 29.5459 92.9315C27.238 92.6809 24.9199 93.3039 23.0485 94.6776C22.4743 95.0237 21.9902 95.5007 21.6356 96.0696C21.6947 96.1314 22.1846 95.6216 23.2512 94.9891C31.2665 90.2189 39.1496 98.1359 36.6152 105.217C34.7456 110.606 27.5142 112.554 22.7718 108.126C19.7747 105.363 19.9139 101.821 19.6555 101.842C19.4815 101.842 19.4336 105.751 22.3029 108.612C23.2782 109.593 24.4538 110.352 25.7493 110.836C27.0449 111.32 28.4297 111.519 29.8092 111.419V111.419Z" fill="#161617"/>
<path d="M50.9331 98.6762C47.3572 94.99 42.8596 92.3284 37.9074 90.968C33.6531 86.5115 28.6026 82.8904 23.0165 80.2913C8.92251 74.672 9.41232 93.2343 15.9556 106.752C15.2111 112.32 16.1022 117.983 18.5203 123.053C18.7412 123.722 19.1391 124.318 19.6719 124.779C20.2047 125.24 20.8524 125.548 21.5462 125.671C24.2249 126.246 27.9103 125.077 30.3732 123.658C30.8952 124.31 32.5613 126.298 33.1329 126.864C35.7559 129.465 38.1023 127.113 37.1497 124.428C36.1057 121.47 35.2722 123.262 38.1797 121.557C39.6927 123.215 41.4701 125.584 43.5676 124.928C44.0968 124.746 44.5605 124.412 44.9009 123.968C45.2413 123.523 45.4433 122.989 45.4816 122.431C45.6313 120.914 44.8039 119.299 43.9531 117.723C43.545 116.964 43.746 117.854 45.292 115.374C47.0416 117.5 47.835 118.537 49.0878 118.801C49.6186 118.892 50.1638 118.77 50.6056 118.462C51.0473 118.154 51.35 117.684 51.4481 117.155C51.79 115.742 50.9078 114.1 50.0561 112.631C48.0464 109.186 47.962 111.694 51.2645 107.165C54.6158 102.37 53.1281 100.943 50.9331 98.6762ZM13.7458 93.3152C15.0837 92.8 16.3723 92.1647 17.5955 91.4169C18.8431 90.6269 19.5095 89.9892 19.4164 89.8509C19.2781 89.6351 18.1697 90.3207 13.5796 92.0738C12.9993 87.0521 13.6431 80.8603 18.69 81.1057C21.0842 81.204 23.9378 82.6482 25.998 83.8705C20.3038 89.034 20.1029 89.1549 20.1934 89.2976C20.2838 89.4403 21.2965 89.0018 22.7555 88.0039C24.2658 86.9347 25.7119 85.7776 27.0864 84.5387C38.2841 91.6248 44.5116 101.492 45.4747 106.898C44.0827 107.949 40.7523 110.693 39.4195 111.899C36.3075 110.058 33.6027 112.761 33.9028 115.507C32.3246 116.243 28.8211 118.066 27.2908 118.952C21.7237 114.827 15.5206 105.033 13.7458 93.3152ZM20.6518 123.137C19.7279 121.803 17.3189 115.904 17.1614 109.059C19.9036 113.931 24.7661 120.257 30.2532 122.139C27.8398 123.388 22.0569 125.166 20.6518 123.137ZM35.5593 123.346C35.9116 124.172 36.465 125.322 36.1274 126.151C35.3322 128.104 33.319 125.276 31.1293 123.193C32.3803 122.383 31.4973 122.629 33.3469 122.827C35.7394 123.067 35.0608 122.169 35.5593 123.346V123.346ZM33.4896 121.497C31.6726 121.248 29.9268 120.626 28.3618 119.67C30.42 118.88 32.3768 117.848 34.1908 116.595C34.7276 117.888 35.9082 119.069 37.3384 120.634C36.1736 121.308 34.8305 121.609 33.4896 121.497V121.497ZM43.9913 122.254C43.8547 123.444 42.9073 124.018 41.5379 122.857C40.3438 121.751 39.2196 120.573 38.1719 119.327C36.5433 117.561 33.7062 115.249 36.0569 112.995C36.3922 112.675 36.8168 112.465 37.2743 112.392C37.7318 112.32 38.2005 112.388 38.6182 112.588C40.4435 113.611 44.2027 120.382 43.9913 122.254V122.254ZM40.2869 112.552C42.2436 111.335 44.0445 109.883 45.6496 108.23C45.7761 109.67 45.6165 111.122 45.1799 112.501C44.7434 113.88 44.0384 115.159 43.1057 116.264C42.307 114.926 41.3615 113.681 40.2869 112.552V112.552ZM49.9543 115.02C50.7669 116.944 49.9822 117.762 49.2888 117.641C48.4536 117.514 47.7715 116.552 45.7331 114.596C46.1388 113.822 46.4568 113.005 46.6814 112.16C47.0633 111.812 47.4696 111.43 47.8907 111.018C48.682 112.296 49.372 113.634 49.9543 115.02V115.02ZM47.0668 109.894C47.5201 104.161 43.3153 97.4216 39.7344 93.056C46.0106 95.954 51.3924 101.174 51.4133 102.503C51.1967 104.914 48.6571 108.025 47.0668 109.894Z" fill="#161617"/>
<path d="M112.593 59.1957C115.139 56.276 115.127 56.7876 117.307 57.7072C125.261 61.061 151.738 74.6243 151.825 74.6722C156.495 77.3605 158.578 77.6232 156.552 82.4073C154.464 87.342 148.844 98.2866 145.532 102.379C143.99 104.119 142.631 106.014 141.479 108.034C139.698 111.411 134.955 113.781 136.401 114.4C142.361 116.943 143.715 119.489 145.305 124.829C145.388 125.106 145.361 125.223 145.073 125.389C144.039 125.987 141.593 127.211 140.582 126.566C139.745 126.031 139.506 124.14 137.856 121.846C136.895 120.602 135.618 119.637 134.158 119.054C132.698 118.471 131.108 118.289 129.554 118.529C126.683 119.169 128.033 119.162 99.9744 134.594C92.1818 138.88 90.2304 138.003 88.0772 142.357C86.3676 145.813 86.3137 149.791 83.8255 150.703C82.8171 151.073 80.5421 150.895 79.6495 149.977C78.1261 148.411 79.5764 142.895 80.208 140.799C80.9092 138.474 80.3768 139.127 82.6075 137.114C84.337 135.553 82.1333 134.378 55.6436 115.742C55.253 115.535 54.8077 115.453 54.369 115.509C51.2074 122.433 55.5661 127.238 49.1107 126.61C47.8684 126.49 47.5291 126.234 47.1097 125.305C44.0699 118.532 47.1358 110.053 54.7657 105.991C58.5937 103.954 49.865 108.888 87.315 89.4561C97.2156 84.3248 100.094 73.5255 112.593 59.1957Z" fill="#39A0FD"/>
<path d="M155.889 76.2442C149.754 72.2361 141.989 69.1502 135.319 65.3518C130.172 62.3311 124.478 60.0639 119.063 57.1868C113.664 54.3158 113.633 55.8305 98.8191 76.5008C90.9804 87.4741 89.2404 87.0496 75.2421 94.4324C54.9093 105.009 50.9952 106.132 49.5901 109.098C44.6477 114.712 44.2518 123.515 46.4581 126.633C47.3055 127.779 48.5235 127.992 49.9468 127.851C55.6462 127.173 52.3994 124.453 54.751 116.49C61.0689 120.893 53.2676 114.663 82.0342 136.326C79.057 138.565 78.1766 142.801 77.853 146.504C77.7285 148.662 77.853 150.76 80.5848 151.676C82.8885 152.48 85.4454 151.51 86.2493 149.64C86.9392 148.035 87.5674 142.854 91.2179 139.553C93.2449 139.013 95.2014 138.236 97.0469 137.239C98.4841 136.517 118.819 125.35 128.863 119.341C129.946 119.146 131.057 119.171 132.129 119.415C133.202 119.659 134.215 120.118 135.106 120.763C139.701 124.13 137.716 130.027 144.184 127.288C145.803 126.603 146.563 125.896 146.097 124.078C144.867 119.479 141.948 115.465 137.357 113.866C144.983 107.281 157.093 84.3578 158.417 80.1696C159.09 78.0042 157.187 77.1429 155.889 76.2442ZM51.7355 123.375C51.5929 125.506 51.7869 125.556 49.7345 125.75C49.0612 125.812 48.5583 125.812 48.1685 125.326C46.9279 123.573 46.8635 116.965 49.7276 112.062C50.8215 113.396 52.0863 114.579 53.4895 115.582C52.4772 118.065 51.8845 120.698 51.7355 123.375V123.375ZM85.8952 144.453C84.8747 146.883 84.5955 148.368 84.3849 148.785C83.8299 150.081 81.1137 150.264 80.1976 148.959C79.5277 148.181 79.6878 140.119 83.2957 137.246C84.7536 138.317 86.4096 139.088 88.1677 139.514C89.8416 139.848 88.0059 139.374 85.8952 144.453ZM141.589 119.256C142.741 120.995 143.582 122.921 144.077 124.947C143.467 125.277 142.826 125.549 142.163 125.758C139.68 126.32 141.22 122.527 136.191 119.146C131.335 116.037 129.508 119.564 135.979 114.956C138.243 115.785 140.2 117.286 141.589 119.256V119.256ZM156.718 79.6615C155.89 82.4882 144.032 106.731 135.925 113.133C132.445 115.934 99.9988 133.657 96.1908 135.54C92.3211 137.45 90.5793 138.009 88.5766 137.594C85.7056 136.999 86.4929 136.95 62.5497 119.171C58.7103 116.394 50.8499 111.974 51.4554 110.175C52.1819 108.087 58.2545 105.668 60.2276 104.678C96.4927 85.7994 91.5781 90.7097 106.164 69.6174C107.606 67.5407 114.296 57.7906 116.266 58.1447C117.249 58.3187 150.949 75.3907 153.218 76.7149C156.795 78.8707 156.923 78.9795 156.718 79.6615V79.6615Z" fill="#161617"/>
<path d="M147.521 69.52C147.576 65.7569 146.86 62.0225 145.417 58.5464C143.975 55.0704 141.836 51.9262 139.134 49.3073C129.858 40.0966 115.252 46.0178 115.252 46.0178L113.87 47.6621C113.87 47.6621 113.014 46.0178 109.396 46.8078C105.778 47.5977 100.205 56.0524 99.5434 58.6537C98.6221 62.272 101.238 65.6894 101.238 65.6894C101.238 65.6894 100.947 65.5798 99.5138 68.2063C98.081 70.8328 100.44 78.4462 100.44 78.4462C100.44 78.4462 96.2635 71.9682 96.2 67.191C96.1817 65.7677 96.0756 61.014 94.9698 60.1257C94.7201 59.6968 93.3368 58.7598 93.985 55.707C94.5888 52.749 97.3493 52.6577 98.4516 51.1151C98.8405 50.4771 98.9844 49.7194 98.8563 48.9832C98.7283 48.247 98.3371 47.5824 97.7556 47.1132C93.6666 44.0055 90.1657 50.0712 89.9813 49.8058C88.8468 48.0763 87.4614 46.5253 85.8705 45.2035C82.0947 42.363 78.8183 43.1546 78.0135 44.6267C77.4097 45.7003 78.2536 46.7956 78.9027 47.8544C75.2852 47.3881 71.3902 48.3016 72.7987 51.0734C73.239 51.9434 74.4761 52.0678 77.3567 53.3998C74.7728 53.9983 72.0497 54.3994 72.3655 56.3395C72.8675 59.0182 76.5711 57.748 79.9284 59.783C80.5572 60.0808 81.0727 60.574 81.3981 61.189C81.7235 61.804 81.8412 62.5077 81.7336 63.1951C81.3709 65.5963 80.5513 66.7464 82.7028 69.433C84.4166 71.5194 85.6041 73.9869 86.1654 76.6279C86.5239 79.1352 90.1961 85.3149 90.1961 85.3149L84.5533 89.4648L78.7243 87.937C78.7243 87.937 79.9963 81.1632 78.2075 77.7693C76.4188 74.3755 74.959 72.4397 70.2505 71.7463C65.5421 71.0529 63.3888 71.3809 63.4254 74.9218C63.4619 78.4627 64.0822 91.4927 64.1553 93.9748C64.2284 96.4569 67.878 97.2965 69.3379 97.3678C75.6793 97.6854 67.5596 96.2751 67.3769 102.127C67.2438 106.396 66.7244 114.791 66.7244 114.791C64.223 114.862 61.8054 115.709 59.807 117.215C56.4793 119.732 56.053 124.041 57.719 125.833C59.3851 127.626 73.379 127.834 73.379 127.834C73.379 127.834 78.4129 128.261 79.8214 126.213C81.2299 124.165 81.1855 117.766 81.1855 117.766C81.1855 117.766 86.7318 123.483 91.1262 124.421C95.5205 125.36 103.327 121.606 106.953 119.43C110.579 117.254 125.297 104.499 125.297 104.499C125.297 104.499 134.47 105.224 138.82 103.048C143.171 100.872 145.86 96.4361 145.817 92.7246C145.792 90.49 145.563 88.2623 145.134 86.0691C150.649 79.7164 149.667 71.079 147.521 69.52Z" fill="white"/>
<path d="M109.431 52.374C107.639 53.7619 105.946 55.2736 104.365 56.898C102.856 58.7063 101.917 60.9215 101.667 63.2634C101.417 65.6054 101.867 67.9689 102.96 70.055C103.405 70.8685 103.605 71.9142 104.129 72.679C107.327 77.3361 111.245 81.7357 116.831 82.597C121.112 83.2556 126.238 81.9079 128.965 78.5436C129.812 77.4996 130.357 76.4817 131.241 75.4682C134.606 71.6036 135.341 65.6772 130.248 58.384C128.649 56.338 126.793 54.5067 124.726 52.9352C120.463 49.2977 113.444 49.0202 112.273 49.4656C110.838 50.0015 110.6 51.3892 109.431 52.374Z" fill="#4490FE"/>
<path d="M85.0943 115.362C90.2952 122.784 97.3613 119.775 97.5179 120.31C97.8764 120.925 89.326 124.246 83.7807 116.277C78.5259 108.725 83.1551 101.212 83.7354 101.732C84.1843 101.992 80.0831 108.216 85.0943 115.362Z" fill="#161617"/>
<path d="M148.414 70.1768C149.567 67.9191 147.326 59.1643 145.7 56.2742C140.244 46.5728 131.718 42.804 120.8 43.761C116.649 44.457 115.136 44.7093 113.417 46.4806C108.827 44.3265 104.651 48.2119 101.608 52.2913C98.3568 56.6413 96.696 61.4446 100.015 65.7694C97.92 67.7843 98.007 70.3865 98.6091 73.2818C95.7207 64.8498 97.7895 63.4987 96.5211 60.5642C95.9121 59.1287 93.7588 56.0141 96.3741 54.0661C97.3711 53.3127 99.1441 52.7054 99.7749 50.962C101.221 46.7512 95.056 42.0645 90.3389 48.7252C84.4185 38.1112 75.0269 41.5277 76.4406 46.3692C71.4016 45.7359 68.8647 51.169 73.0137 53.2266C72.4707 53.397 71.9844 53.712 71.607 54.138C71.2296 54.564 70.9754 55.0847 70.8717 55.6443C70.5551 60.6111 77.1801 59.916 79.1367 61.0922C81.7955 62.6382 78.7574 64.6314 79.9432 67.3397C80.8672 69.5539 82.595 69.2424 84.5116 74.3197C85.8096 77.7762 86.2264 80.3958 89.2209 84.945C87.3687 85.709 85.665 86.7921 84.1871 88.1449C82.5199 87.6037 80.8226 87.1605 79.1037 86.8173C80.6949 81.1832 79.2324 73.0713 72.7623 71.1138C70.3993 70.4387 64.8322 69.5138 63.1644 71.3748C62.0334 72.638 62.2161 72.8538 62.3579 81.8287C62.4562 88.01 62.7251 90.6966 62.9869 94.0957C63.435 96.8579 65.4482 97.9385 68.2356 98.2717C63.3141 103.136 65.811 114.593 64.9488 114.619C58.7213 114.849 55.0552 119.62 55.6711 124.152C56.1618 128.915 63.9822 128.355 68.2861 128.751C80.3356 129.736 82.4079 127.747 82.2522 120.171C82.2357 119.393 81.9495 119.845 84.5003 121.937C88.4666 125.156 93.129 126.675 97.9662 124.944C104.752 122.517 115.386 116 125.797 105.534C136.741 106.522 146.481 103.245 146.779 92.5706C146.77 90.3205 146.541 88.0768 146.094 85.8716C149.454 81.3389 151.874 74.3702 148.414 70.1768ZM113.1 50.2564C115.449 49.2228 124.255 51.8372 130.094 60.2466C132.356 63.5222 133.754 66.5976 132.37 70.3082C130.487 75.5342 126.144 81.0962 120.637 81.8713C114.17 82.9153 104.601 76.3329 102.475 65.7024C102.91 64.273 102.546 60.3136 107.965 54.9466C110.49 52.4723 111.659 51.9686 113.1 50.2564ZM100.175 60.204C100.674 56.3116 107.012 46.5058 112.319 47.763C108.991 51.959 101.986 55.2398 100.709 63.9032C100.189 62.7443 100.004 61.4627 100.175 60.204V60.204ZM73.2538 49.5804C73.7575 48.7165 75.4288 48.2067 76.4337 48.3485C78.7252 48.7426 78.0049 48.9253 79.6996 49.8692C81.4492 50.8262 82.9326 51.6962 84.1619 52.5167C80.8959 55.2319 83.4006 55.3181 80.4487 54.127C79.557 53.7877 80.3774 54.0165 75.0243 51.7484C74.4179 51.5787 73.8592 51.2704 73.3921 50.848C73.1355 50.3678 73.0059 50.025 73.2538 49.5804ZM82.548 67.6199C80.8472 65.7415 82.3401 65.0159 82.3792 62.8131C85.6165 63.4499 88.3005 62.225 88.1943 61.9074C88.0751 61.5264 85.4556 62.3564 82.1913 61.5029C81.2787 58.6684 77.0174 57.9794 74.2865 57.5209C71.7148 56.3629 72.9867 54.5272 76.4615 54.5551C81.2291 56.3577 81.4918 56.0054 81.35 56.4003C81.0499 57.239 81.0238 57.8019 81.176 57.8585C81.5136 57.9776 82.4071 56.1106 84.0853 54.2915C85.7383 52.4479 87.5105 51.3822 87.3591 51.0568C87.2895 50.9089 86.731 50.9872 85.9245 51.3665C84.8205 51.8807 86.4978 51.8015 80.7184 48.1997C76.1074 45.1721 79.403 43.0371 82.9038 44.2438C85.6487 45.186 87.8115 47.7873 89.4689 50.1598C88.2309 52.6115 88.1639 54.5742 88.4249 54.5681C88.6432 54.5846 88.8868 52.5828 90.7043 50.0746C93.9676 45.6289 97.0761 46.5076 98.0366 48.4677C99.5061 51.39 95.5806 51.5997 94.0825 53.9087C93.6618 54.5311 93.3865 55.2401 93.2769 55.9833C93.1673 56.7264 93.2261 57.4848 93.4491 58.2021C93.2224 58.7222 92.8702 59.1781 92.4243 59.5289C91.0053 60.6007 88.2883 61.4881 88.4014 61.837C88.5014 62.1528 92.6052 61.3715 94.0007 59.6193C94.7706 61.2471 95.2083 61.0026 95.1195 63.7892C92.6548 67.1031 86.142 68.9483 82.548 67.6199ZM89.214 69.0545C91.4684 68.5319 93.5206 67.3605 95.1169 65.685C95.1754 67.6017 95.5067 69.5002 96.1009 71.3234C93.0374 72.7891 89.8122 73.8897 86.4917 74.6025C83.9009 66.2226 81.9608 70.9754 89.214 69.0545ZM86.691 75.255C90.0901 74.8469 93.3698 73.7473 96.3279 72.0238C96.5715 72.7537 96.8795 73.5898 97.1901 74.3423C94.0699 75.8428 90.7844 76.9717 87.4009 77.7058C87.1677 76.9297 86.9424 76.1093 86.6883 75.255H86.691ZM79.9598 123.225C79.4378 128.195 72.4343 126.637 63.7778 126.434C61.802 126.367 58.0984 126.073 57.5729 124.165C67.4814 125.255 76.726 124.952 76.7225 124.554C76.719 124.157 68.7872 124.165 57.4711 122.867C57.5058 122.073 57.6659 121.29 57.9453 120.547C59.6949 116.349 65.3185 114.9 69.3858 116.38C71.6939 117.22 72.5804 118.463 72.7388 118.303C72.9128 118.156 71.1432 115.56 67.3543 114.816C67.3761 110.948 66.8628 103.706 69.177 100.589C70.3732 98.979 72.5317 98.0333 74.3909 98.8102C79.7023 101.032 80.3574 119.67 79.9572 123.225H79.9598ZM116.732 103.982C116.704 104.398 123.329 105.266 123.786 105.321C116.559 111.547 106.102 119.589 97.2432 122.886C91.5882 124.993 86.3029 121.853 82.1652 117.465C80.9472 88.7852 70.7508 98.6971 65.9832 95.3198C65.7444 95.1616 65.5452 94.9507 65.4008 94.7033C65.2564 94.4559 65.1708 94.1787 65.1506 93.893C64.8896 90.5148 64.6286 87.9578 64.5312 81.7852C64.3929 73.0286 64.3302 73.1391 64.8426 72.7981C65.3909 72.5477 65.9869 72.4192 66.5896 72.4214C67.1073 79.3361 66.8611 92.9316 67.4553 92.9177C67.7963 92.9099 68.3862 79.5449 67.8737 72.4405C69.3256 72.5429 70.7667 72.7632 72.1828 73.0991C78.426 74.8583 79.3725 84.2673 76.7295 90.0641C76.01 91.5727 75.4558 92.354 75.5854 92.4644C75.7899 92.6384 77.3567 90.9854 78.3129 88.954C84.3576 90.1094 90.8409 92.5784 94.9142 97.2912C98.4995 101.389 104.223 114.604 105.275 113.989C105.546 113.834 104.723 111.774 103.372 108.443C103.083 107.73 102.958 108.128 105.833 109.835C109.636 112.065 109.733 111.517 106.48 108.907C101.347 104.626 102.043 105.132 100.81 102.613C97.7339 96.362 94.6045 92.2148 86.5109 88.9818C87.8449 88.2519 89.069 87.3369 90.1466 86.264C90.7826 87.1226 92.8201 89.5499 93.0741 89.3203C93.3856 89.0488 90.3084 85.795 87.895 79.2526C87.3191 77.6231 87.2756 79.0334 92.52 77.2516C99.8436 74.7721 95.7094 73.1087 100.033 79.7424C102.328 83.2372 106.899 88.7156 112.068 91.2264C114.565 92.4192 116.096 92.6358 116.122 92.5314C116.296 92.0094 109.659 90.5435 104.439 82.8074C102.5 79.946 101.017 76.1084 101.469 76.8523C103.528 80.496 106.603 83.4615 110.318 85.387C115.739 88.171 123.087 88.7852 128.161 85.8098C129.985 84.6854 131.59 83.2392 132.897 81.5416C132.255 84.2038 132.18 87.1226 133.861 89.2568C130.434 91.1614 126.658 92.3562 122.759 92.7698C119.256 93.0856 117.071 92.4923 116.995 92.7942C116.856 93.1004 122.325 95.6121 130.764 92.6289C130.704 93.2802 130.513 93.9127 130.202 94.4881C129.537 95.7487 118.065 95.6191 118.045 96.2437C118.022 96.9971 126.392 97.092 128.507 96.7657C129.269 98.331 130.398 99.689 131.798 100.724C133.198 101.759 134.827 102.441 136.547 102.711C128.86 105.333 116.803 102.844 116.729 103.982H116.732ZM137.994 102.138C136.208 101.941 134.49 101.344 132.967 100.39C131.445 99.436 130.158 98.1504 129.202 96.6291C129.894 96.5053 130.545 96.2124 131.097 95.7765C133.966 98.4395 137.769 99.8641 141.681 99.7411C140.59 100.736 139.344 101.546 137.991 102.138H137.994ZM142.344 99.0582C138.422 99.0056 134.626 97.6672 131.538 95.2484C131.812 94.7717 131.998 94.25 132.088 93.7077C132.564 91.142 131.28 92.8298 135.367 90.5443C138.332 92.173 141.943 90.4695 144.448 87.8386C144.923 91.9198 145.013 96.0167 142.34 99.0582H142.344ZM148.552 75.469C148.1 80.515 142.705 89.1985 137.685 88.9879C131.707 88.7382 134.824 75.0758 142.777 69.5869C143.919 68.8518 144.731 68.8231 144.725 68.6438C144.786 68.3785 142.434 67.7651 138.439 71.6575C140.393 65.2395 137.81 61.0853 137.641 61.1645C136.977 61.415 142.104 67.4946 132.873 79.4701C129.213 84.1951 125.8 86.491 119.549 86.2474C106.811 85.8203 99.6 73.4315 100.453 68.6264C100.656 68.0577 101.009 67.5544 101.475 67.1692C104.374 80.3279 120.653 91.6362 131.187 76.5922C136.013 69.5191 135.757 65.2404 131.529 59.2357C126.515 52.1948 118.844 48.5582 114.378 48.666C114.839 48.0594 115.403 47.5392 116.046 47.1296C117.743 46.834 119.49 47.0196 121.087 47.6655C131.399 51.3317 137.321 61.0253 137.53 60.9261C138.415 60.6477 132.16 49.9693 121.596 46.2022C120.677 45.882 120.695 45.9769 121.08 45.9116C133.246 44.8511 141.526 50.46 145.029 60.1848C145.731 62.285 146.723 67.1501 146.562 68.7857C146.562 68.8483 145.654 68.5386 145.609 68.7456C145.518 69.0388 149.068 70.068 148.548 75.469H148.552Z" fill="#161617"/>
<path d="M61.5194 53.7529C60.3805 59.3096 60.3823 59.2113 60.4006 59.2992C60.5746 60.1692 63.2411 56.8475 66.2626 56.5152C64.9838 58.1119 63.9918 59.9184 63.3307 61.8544L67.4197 61.0592C68.5812 60.833 69.653 61.1723 69.2807 61.6064C67.3175 63.0877 65.4572 64.7006 63.7127 66.4341C56.4777 73.5193 56.7526 74.7774 55.6008 76.379C55.0125 77.0586 54.4626 77.7705 53.9539 78.5114C53.2091 79.8381 52.9908 81.9209 51.2629 81.2536C49.6726 80.6394 46.4945 80.1392 46.3805 77.9816C46.2126 74.8339 51.2743 61.944 61.5194 53.7529Z" fill="#4490FE"/>
<path d="M42.5623 78.5148C41.5278 76.2467 46.5329 78.0389 46.9801 78.0433C48.3721 78.0511 48.7245 76.3685 51.0282 75.3167C52.2628 74.7529 52.0531 79.3648 52.5133 80.026C52.6734 80.2209 52.8737 80.3788 53.1006 80.4888C54.1065 81.074 55.0643 81.7385 55.9646 82.4759C56.5136 82.9257 56.3474 83.3033 55.7315 83.6287C53.2276 84.9502 52.2132 85.0807 52.0052 85.3173C51.8904 85.4487 51.9461 85.3469 50.7942 89.7465C50.4923 90.901 48.4156 88.2205 47.5587 87.2479C47.4083 87.0127 47.1864 86.832 46.9257 86.7322C46.6649 86.6325 46.3791 86.619 46.1101 86.6937C45.5429 86.7485 42.2708 87.0704 41.9089 86.6293C41.2825 85.8672 44.0926 82.9074 44.1378 82.0931C44.1848 81.311 42.5623 79.2569 42.5623 78.5148Z" fill="#FFD43D"/>
<path d="M69.5879 61.2993C69.7558 60.82 66.0531 60.1066 63.544 61.5725C63.6049 61.4855 67.151 56.0219 66.9179 55.8305C66.7265 55.3868 62.4313 57.3808 60.5991 59.3592C60.7235 58.993 62.1651 53.6172 61.7388 53.4832C61.6187 53.324 52.1688 58.9695 46.9662 73.2836C46.4697 74.5573 46.1195 75.8833 45.9222 77.236C43.8942 76.7792 42.7284 76.2172 42.0072 77.3447C41.4347 78.2391 41.8915 78.7019 43.5131 82.2167C41.5443 85.5323 40.9971 86.0082 41.5461 86.9756C42.1855 88.0988 43.1451 87.6864 46.7896 87.2558L49.3126 90.1268C49.4933 90.3314 49.7275 90.4814 49.9889 90.5601C50.2503 90.6388 50.5284 90.6429 50.792 90.572C51.0556 90.5011 51.2942 90.358 51.4809 90.1588C51.6676 89.9597 51.7949 89.7123 51.8486 89.4447L52.5933 85.695L56.1055 84.1829C56.3564 84.0748 56.572 83.8987 56.7279 83.6744C56.8839 83.4502 56.974 83.1868 56.9882 82.914C57.0023 82.6412 56.9398 82.3699 56.8078 82.1308C56.6758 81.8917 56.4796 81.6942 56.2412 81.5608L53.6791 80.127C60.968 67.3641 70.016 61.8048 69.5879 61.2993ZM55.6192 83.0441C51.2962 84.905 51.518 84.765 51.4858 84.9303C50.5923 89.4812 50.6776 89.3847 50.4157 89.3847C50.1121 89.3847 47.4943 85.9186 47.1776 85.9604C43.3844 86.4563 42.9146 86.4754 42.8224 86.4754C42.2603 86.4754 42.7467 85.9421 44.8556 82.3864C44.9426 82.2402 45.0122 82.4951 43.0416 78.2217C43.0237 78.1838 43.0169 78.1415 43.0219 78.0999C43.0268 78.0582 43.0434 78.0188 43.0698 77.9862C43.0961 77.9535 43.131 77.9289 43.1707 77.9152C43.2103 77.9014 43.253 77.8991 43.2939 77.9085C46.5529 78.6332 47.5056 78.8725 47.5943 78.8725C47.7222 78.8725 47.5004 79.0386 50.9456 75.8536C50.9763 75.8251 51.0144 75.8059 51.0556 75.798C51.0967 75.7901 51.1393 75.7939 51.1784 75.8089C51.2175 75.8239 51.2516 75.8496 51.2769 75.883C51.3022 75.9164 51.3176 75.9563 51.3214 75.998C51.7642 80.696 51.6911 80.4298 51.8382 80.5115C55.1233 82.3525 56.2369 82.7788 55.6192 83.0441ZM52.8813 79.4014L52.5559 75.8857C52.523 75.5221 52.3549 75.184 52.0847 74.9383C51.8146 74.6927 51.4621 74.5573 51.0969 74.559C50.2974 74.559 50.1695 74.8879 47.2968 77.5448L46.9349 77.4631C47.1577 76.1634 47.523 74.8922 48.0241 73.6725C51.6259 64.2391 55.2451 60.1283 61.2803 54.0592C60.1249 56.3456 59.8883 59.8238 60.312 59.8473C60.4625 60.0413 61.9363 59.1391 63.7406 58.0394C66.7169 56.2072 65.6981 56.5152 64.4236 58.5223C63.3178 60.2475 62.9098 61.8944 63.136 61.9692C63.2291 62.205 64.6359 61.8144 66.3724 61.6073C67.6165 61.4411 68.6996 61.4768 69.2364 61.4229C65.3501 63.4674 57.5993 70.5457 52.8813 79.4014Z" fill="#161617"/>
<path d="M147.578 18.5172C146.345 16.3422 144.968 16.0255 142.769 15.2399C139.258 13.9845 136.449 13.0562 133.334 13.7905C123.632 16.0768 118.688 30.4292 123.684 36.4853C125.579 38.7838 133.135 41.1911 135.803 41.1911C144.813 41.1911 152.048 26.5769 147.578 18.5172Z" fill="#FFD43D"/>
<path d="M148.034 18.2622C146.667 15.7392 144.63 15.3991 142.946 14.744C140.423 13.8426 137.248 12.736 134.572 13.0335C122.601 14.7553 118.098 31.24 123.453 36.9977C125.225 39.2431 134.1 42.2464 136.836 41.6087C146.203 40.3454 152.35 26.1723 148.034 18.2622ZM143.011 20.7931C143.707 20.9201 144.676 21.028 145.447 21.2281C146.292 21.4447 147.296 21.8684 147.979 22.0807C148.261 23.8878 148.22 25.7308 147.856 27.5234C144.13 27.2067 144.99 26.984 142.622 26.1992C143.048 24.4309 143.18 22.6042 143.011 20.7931V20.7931ZM147.788 21.0976C144.618 20.8105 145.225 20.6147 142.84 19.7317C142.539 18.0425 141.693 16.4983 140.432 15.3347C139.974 14.9658 139.04 14.5891 142.537 15.8715C144.563 16.6632 146.786 16.9129 147.788 21.0958V21.0976ZM122.327 32.1118C121.943 29.3115 122.275 26.4594 123.293 23.8225C124.311 21.1855 125.981 18.85 128.148 17.0347C135.978 10.5097 145.997 15.105 141.062 28.7875C135.514 43.4305 123.492 39.8139 122.327 32.11V32.1118ZM130.458 39.3806C132.231 39.3434 133.964 38.8441 135.485 37.9321C136.79 38.461 137.274 37.9721 139.894 39.3136C136.632 41.0362 134.317 40.6291 130.458 39.3789V39.3806ZM140.876 38.7298C138.729 38.1583 139.242 38.6994 136.377 37.2369C137.606 36.1556 138.677 34.9069 139.559 33.5272C141.324 33.9622 140.739 33.2445 144.793 34.7583C143.754 36.3205 142.424 37.6683 140.876 38.7281V38.7298ZM145.335 33.9179C144.639 33.8109 143.519 33.7439 142.653 33.5359C141.788 33.328 140.762 32.8608 140.095 32.6346C141.082 30.9177 141.848 29.0836 142.376 27.1754C144.572 27.6974 143 26.8926 147.658 28.4073C147.154 30.3462 146.372 32.2019 145.335 33.9161V33.9179Z" fill="#161617"/>
<path d="M128.419 37.1856C132.69 38.696 137.151 32.8452 138.877 29.079C141.447 23.39 141.155 15.607 134.984 15.42C129.202 15.2321 125.38 23.3222 125.685 23.457C125.873 23.544 127.172 19.8344 131.087 17.1565C131.956 16.5454 132.97 16.1723 134.028 16.0743C135.086 15.9764 136.151 16.1569 137.118 16.598C144.929 20.6252 133.585 42.3099 126.749 35.3778C122.112 30.8955 126.672 21.2525 125.345 24.0782C123.213 28.6066 123.694 35.5613 128.419 37.1856Z" fill="#161617"/>
<path d="M129.572 26.8596L128.006 28.2081L129.475 33.7831C129.643 33.6456 128.973 34.2181 133.695 30.1447C133.723 30.1269 133.744 30.0995 133.753 30.0675C133.763 30.0355 133.761 30.0012 133.747 29.9707C133.58 29.353 133.24 28.0654 133.225 28.0193C132.929 28.2934 133.689 27.6339 130.606 30.3005C130.381 30.4936 130.62 30.4414 129.572 26.8596Z" fill="#161617"/>
<path d="M129.793 22.3443L130.331 24.3722C130.399 24.3139 132.179 22.7775 132.988 22.0763C133.108 21.9719 133 21.9963 133.976 25.5563L135.542 24.2078L134.078 18.645L129.793 22.3443Z" fill="#161617"/>
<path d="M131.26 27.908L132.829 26.5482L132.291 24.5002L130.719 25.8574L131.26 27.908Z" fill="#161617"/>
<path d="M136.461 27.7227L135.934 25.7078L134.382 27.0493L134.916 29.0642L136.461 27.7227Z" fill="#161617"/>
<path d="M128.592 23.3657C127.002 24.7359 127.052 24.6385 127.088 24.7699C127.635 26.8118 127.57 26.7622 127.668 26.6769C128.304 26.1245 129.11 25.4345 129.173 25.3719C128.606 23.223 128.679 23.2883 128.592 23.3657Z" fill="#161617"/>
<path d="M111.099 30.0255C118.598 24.6594 114.423 4.3501 102.787 4.3501C99.8019 4.57839 96.8524 5.1461 93.9958 6.04225C86.5338 8.89498 86.8235 29.1112 98.1587 32.6642C101.181 33.616 108.727 31.7203 111.099 30.0255Z" fill="#FFD43D"/>
<path d="M104.592 3.99507C102.023 3.46002 98.5981 4.30131 96.0168 4.94076C93.7992 5.53497 92.2315 5.769 90.6846 8.20152C85.6064 16.1881 89.2517 30.7841 98.3824 33.2767C101.09 34.0805 107.558 32.4223 110.535 30.9981C119.03 26.9335 115.987 6.00912 104.592 3.99507ZM96.3092 6.11526C100.457 5.05125 99.3542 5.35488 98.7191 5.78901C97.3291 6.85578 96.2945 8.31828 95.7515 9.98415C93.3555 10.5931 93.8627 10.882 90.7577 10.8159C92.2471 7.00005 94.0289 6.72513 96.3092 6.11526ZM90.4227 11.779C93.3851 11.1943 91.0056 11.3544 95.4226 11.0368C94.9726 12.8785 94.8112 14.7789 94.9441 16.6701C92.6473 17.1564 93.3494 17.5297 89.665 17.4279C89.6 15.5156 89.857 13.606 90.4253 11.779H90.4227ZM89.7172 18.3422C90.4071 18.1978 91.3215 17.9455 92.094 17.8463C93.0754 17.7211 94.3395 17.7707 95.0294 17.6889C95.2406 19.7066 95.6993 21.6906 96.3953 23.5962C95.7158 23.7476 94.6379 24.1077 93.7479 24.2269C92.8866 24.3426 91.7965 24.2861 91.097 24.3139C90.3552 22.3993 89.8915 20.3883 89.7198 18.3422H89.7172ZM91.4833 25.23C95.6184 24.173 94.9824 24.7881 96.7798 24.5671C97.3954 26.0893 98.2443 27.5064 99.2959 28.7675C96.2457 29.9428 96.9034 29.4504 94.6544 29.7958C93.3004 28.5032 92.2218 26.9501 91.4833 25.23V25.23ZM95.5061 30.5083C96.0634 30.274 96.6386 30.0849 97.2261 29.9428C98.1979 29.7445 100.104 29.6949 100.065 29.5539C101.383 30.7101 103.017 31.4457 104.757 31.6663C99.2907 32.8391 97.5715 32.0595 95.5061 30.504V30.5083ZM113.814 24.9055C113.169 27.0127 112.002 29.0998 110.009 30.0159C108.597 30.8301 106.977 31.2128 105.35 31.1165C94.9024 30.1368 91.3554 6.73557 102.383 4.986C109.794 4.638 116.769 14.5621 113.814 24.9012V24.9055Z" fill="#161617"/>
<path d="M112.107 16.4987C111.016 12.5646 114.344 23.33 109.144 27.8087C103.547 32.7886 97.9205 21.7466 98.292 14.1384C98.7427 5.77424 106.644 3.70973 111.024 13.6817C111.607 15.0371 111.807 15.8384 111.873 15.821C111.782 15.0493 111.591 14.2929 111.303 13.5712C108.269 5.35403 101.897 4.93556 99.2803 8.72963C95.7734 13.6425 97.7517 22.8071 102.277 27.8949C107.237 33.455 114.676 25.8251 112.107 16.4987Z" fill="#161617"/>
<path d="M103.912 18.3849C104.352 18.5719 104.82 18.6831 105.297 18.7137C106.491 18.7137 107.646 17.2887 108.126 16.3447C108.252 16.0985 108.279 16.3343 107.793 15.1546C106.854 12.9086 105.711 10.7535 104.378 8.71655C103.302 11.4678 102.473 14.3094 101.901 17.2078C102.063 17.6497 102.214 17.8559 103.912 18.3849ZM104.512 10.6018C105.611 12.3491 106.536 14.2 107.273 16.1281C105.937 18.4458 105.011 17.8359 104.165 17.5697C103.695 17.4364 103.236 17.2617 102.796 17.0477C103.206 14.8592 103.78 12.7046 104.512 10.6018V10.6018Z" fill="#161617"/>
<path d="M108.676 17.3269C105.041 20.2562 107.67 20.7512 101.783 18.5536C102.027 19.5843 102.459 20.5613 103.056 21.4359C103.48 22.1537 106.137 26.5593 106.971 26.5994C108.576 26.5559 108.532 19.1017 108.676 17.3269ZM107.695 20.3815C107.466 23.0028 107.457 24.4157 106.897 25.5432C105.745 24.1125 104.707 22.5944 103.79 21.0027C102.615 19.0017 103.552 20.8139 105.825 20.7486C107.532 20.706 107.886 18.183 107.695 20.3815Z" fill="#161617"/>
<path d="M77.3665 35.7891C86.1082 28.2366 77.8946 4.42212 63.5561 4.42212C59.3514 4.42212 51.3874 8.37975 50.9185 8.65989C47.5368 10.6713 46.4815 15.5042 46.4728 19.3939C46.4336 32.5988 56.6465 42.9257 64.467 41.4754C68.683 40.6829 75.0514 37.7866 77.3665 35.7891Z" fill="#FFD43D"/>
<path d="M67.378 4.52388C62.7348 2.82042 57.9046 4.93278 53.2962 6.95988C51.029 8.0091 48.8984 8.55894 47.2984 12.2243C42.2002 24.2398 52.2191 45.2721 66.4497 41.5337C69.7897 40.6158 75.0862 38.4208 77.9172 35.9709C85.5628 29.3554 80.0704 8.09088 67.378 4.52388ZM50.7741 10.0388C51.7224 9.22275 56.4978 7.22871 57.5801 6.80589C55.6619 8.50173 54.4132 10.8274 54.0592 13.3631C51.2213 14.6342 51.8729 14.9065 47.9622 15.4963C48.2627 13.4139 49.2527 11.4923 50.7741 10.0388V10.0388ZM47.7508 16.7804C51.2691 15.4328 48.3668 16.1279 53.8843 14.7568C53.7229 17.1719 53.9324 19.5975 54.5055 21.9491C51.7215 23.0636 52.6785 23.3777 48.0292 24.0528C47.5294 21.6614 47.4353 19.203 47.7508 16.7804V16.7804ZM48.2928 25.1925C49.1298 24.8601 50.2251 24.3434 51.176 24.051C52.3827 23.6795 53.9852 23.4655 54.83 23.2132C55.536 25.7052 56.5452 28.1011 57.835 30.3472C57.0128 30.6848 55.7357 31.373 54.6421 31.7166C53.5824 32.0507 52.1983 32.2177 51.3248 32.403C49.9753 30.1565 48.9543 27.7283 48.2928 25.1925V25.1925ZM52.0121 33.4688C52.9237 33.0143 53.8601 32.6114 54.817 32.2621C56.0785 31.8654 57.775 31.7096 58.5301 31.4791C59.6369 33.2603 61.0141 34.8584 62.6122 36.2162C59.0234 38.3625 59.7499 37.5961 56.9963 38.5209C55.0111 37.1903 53.3157 35.4718 52.0121 33.4688V33.4688ZM58.223 39.2369C58.873 38.8205 59.5555 38.4574 60.264 38.1511C61.516 37.6613 63.831 37.2194 63.751 37.0427C65.66 38.2182 67.8802 38.7881 70.1194 38.6775C63.4674 41.3579 61.1419 40.7315 58.223 39.2369ZM76.3616 35.4576C74.4581 36.7626 73.0269 37.6839 70.7406 37.8571C65.8686 38.2373 62.6496 35.7786 59.8873 31.7914C49.9162 17.3129 55.2859 -0.303745 69.8471 7.04688C81.8183 14.0321 82.5543 31.205 76.3616 35.4533V35.4576Z" fill="#161617"/>
<path d="M76.0571 17.9949C75.1479 16.0713 76.0945 18.6309 76.4816 20.1525C77.5022 24.2885 77.4821 29.5981 74.7921 32.8667C68.8361 40.353 59.3531 27.6937 58.1612 18.0314C56.9145 7.46616 66.3601 3.0309 74.0822 14.6828C75.1105 16.261 75.5386 17.2258 75.6151 17.1902C75.3342 16.2384 74.9284 15.328 74.4084 14.4827C68.7952 4.79178 60.6885 5.68092 58.2264 11.0105C53.8147 20.4875 63.3847 35.046 69.4773 35.9874C76.151 37.1488 80.2435 26.8663 76.0571 17.9949Z" fill="#161617"/>
<path d="M68.9991 20.0359C69.56 19.5171 69.9651 18.8522 70.1689 18.1158C70.3726 17.3794 70.3669 16.6008 70.1524 15.8675C69.9379 15.1341 69.5232 14.4752 68.9547 13.9647C68.3862 13.4541 67.6866 13.1123 66.9346 12.9776C66.798 11.6021 65.8958 10.7921 65.6574 10.9592C65.426 11.1106 65.6574 11.844 65.8845 12.6931C65.9784 13.0272 66.0733 12.7801 64.5795 12.9193C64.1192 10.5773 62.9969 10.7373 63.6103 13.0602C63.2187 13.2082 62.8377 13.3826 62.4697 13.5822C62.8995 15.2857 64.3837 18.8423 65.1058 21.7602C65.8279 24.6782 66.5057 28.5271 67.1451 30.1992C68.4423 29.719 68.1526 29.7251 68.3379 30.2671C68.8294 31.7139 70.1214 32.4769 69.2679 29.9504C69.2061 29.7668 69.1905 29.8025 69.3001 29.7903C70.8661 29.6163 70.5999 29.3005 70.7199 29.6929C71.5151 32.2385 72.1754 31.0562 71.6595 29.4058C71.5412 29.016 71.5038 29.1274 71.69 29.0073C75.1517 26.841 72.2685 21.2417 68.9991 20.0359ZM64.7004 14.7289C65.9001 14.3635 67.0198 14.0651 68.0734 14.6175C68.5858 14.8786 68.9887 15.3133 69.2102 15.844C69.4317 16.3746 69.4574 16.9668 69.2827 17.5146C68.6981 19.1885 66.6901 19.3529 65.5304 19.6409C65.2024 17.927 64.9423 16.1287 64.7004 14.7272V14.7289ZM68.3257 27.9268C67.4071 25.9363 66.63 23.8835 66.0002 21.7837C66.9364 21.4447 67.9473 21.3671 68.9243 21.5593C72.4234 22.645 74.7072 28.5201 68.3257 27.9268Z" fill="#161617"/>
<path d="M23.1506 24.9437C20.1691 25.9433 13.7459 30.3951 12.7019 31.7045C5.91591 40.1774 17.8262 66.0329 33.3 65.7049C36.5251 65.6371 43.1815 61.2236 46.3057 58.0359C55.7269 48.4198 38.8019 19.6941 23.1506 24.9437Z" fill="#FFD43D"/>
<path d="M26.9093 47.8498C29.1452 51.0949 34.9411 57.1762 38.8561 57.4494C41.2051 57.6129 42.8685 56.1287 43.8073 54.0051C47.3151 46.0707 38.8483 34.056 41.34 37.5394C45.2323 42.9726 47.6553 53.0602 42.4979 57.2737C40.731 58.7161 37.9739 58.9745 35.0046 57.1066C22.4514 49.2122 16.2596 30.3419 25.8157 27.4796C33.3273 25.2298 41.0381 36.5137 40.7005 36.7434C40.4665 36.9035 37.6224 31.8792 31.7212 28.9082C28.3578 27.2143 24.9822 28.1252 23.4841 30.0226C20.112 34.2926 23.4971 42.8995 26.9093 47.8498Z" fill="#161617"/>
<path d="M22.0441 24.8193C19.0201 26.3685 16.138 28.1804 13.4311 30.2342C4.84857 37.2255 14.6622 62.7261 30.5336 66.0782C32.0319 66.3471 33.57 66.2979 35.048 65.9337C37.4979 65.1708 41.6409 62.9174 46.1344 58.9476C46.8841 58.2621 47.5217 57.4633 48.0241 56.5804C54.5725 45.1964 37.5841 18.0576 22.0441 24.8193ZM16.0951 30.3708C17.3618 29.472 18.605 28.5933 19.8578 27.8156C18.191 30.1193 17.4392 32.9599 17.7481 35.7865C15.1546 37.6266 15.7958 37.8049 12.0739 39.0325C11.8442 33.1704 13.9731 31.8854 16.0951 30.3708ZM12.1653 40.3923C12.9535 39.906 14.0436 39.0716 15.0128 38.5453C15.8976 38.065 17.0555 37.6422 17.8838 37.269C18.3056 40.0208 19.1195 42.6981 20.3006 45.219C17.9107 46.7694 18.5902 47.0904 14.2698 48.4763C13.1592 45.9051 12.4494 43.1787 12.1653 40.3923V40.3923ZM14.7901 49.616C15.56 49.1297 16.537 48.4259 17.4166 47.97C18.5476 47.3853 20.1032 46.8947 20.9157 46.491C22.2471 49.166 23.8768 51.6818 25.7738 53.9904C24.996 54.4567 23.8459 55.3502 22.8236 55.8887C21.8431 56.4046 20.5268 56.8327 19.6916 57.2007C17.7391 54.8933 16.0917 52.3441 14.7901 49.616V49.616ZM20.5825 58.1968C24.5506 55.2136 24.1982 56.1889 26.7064 55.0805C28.2762 56.8922 30.0991 58.468 32.1187 59.7594C29.0659 62.5477 29.6479 61.6594 26.9788 63.1376C24.5571 61.9021 22.3866 60.2267 20.5782 58.1968H20.5825ZM32.7625 64.5296C31.2467 64.5188 29.7446 64.2405 28.3255 63.7074C31.1965 61.053 31.9865 61.5585 33.4516 60.4719C35.6729 61.4921 38.1637 61.7697 40.5551 61.2636C38.662 62.4981 34.9975 64.6183 32.7538 64.5296H32.7625ZM46.6973 55.8165C46.2592 56.5446 45.7173 57.2049 45.0887 57.7766C43.2617 59.3539 42.7092 59.9995 40.4777 60.4214C35.316 61.4237 31.5689 58.7615 27.9897 54.9648C20.6112 46.8294 13.7965 31.1842 23.3491 26.0034C36.7062 20.7825 53.2101 44.8458 46.6973 55.8165Z" fill="#161617"/>
<path d="M35.9432 43.9001C32.4823 46.2882 32.7468 46.27 32.3049 46.0403C29.1659 44.4099 29.2051 44.5274 29.1172 44.2751C29.0293 44.0228 28.5952 44.4595 35.5456 39.6345C35.8066 39.4544 35.7883 39.5414 38.9691 41.1605C39.6851 41.525 39.277 41.5981 35.9432 43.9001Z" fill="#161617"/>
<path d="M27.8227 42.3993C27.6252 42.2323 27.7209 42.3993 27.3007 38.7792C27.2433 38.2851 26.8588 38.6922 33.784 33.9568C34.2529 33.6367 34.2729 34.6929 34.3268 35.1792C34.5957 37.6152 34.7114 37.8649 34.4373 38.0502C27.4747 42.8039 28.0141 42.5611 27.8227 42.3993Z" fill="#161617"/>
<path d="M40.5367 43.3101C40.7246 43.4841 40.6559 43.3614 41.0587 46.9989C41.1031 47.3973 41.5128 46.9884 34.5415 51.7639C34.3214 51.9144 34.1544 51.6769 34.1248 51.408C33.7516 47.9872 33.6419 47.841 33.9099 47.661C40.9221 42.8342 40.3723 43.1604 40.5367 43.3101Z" fill="#161617"/>
<path d="M161.364 115.053L158.122 113.62C155.784 118.717 138.286 159.311 137.856 159.904C137.659 159.527 131.752 136.436 131.743 136.262C131.743 136.24 131.675 136.674 131.671 136.642C131.65 136.655 131.684 136.218 131.64 136.261C127.071 142.118 126.674 142.799 124.107 146.32C123.828 145.298 120.547 133.574 120.52 133.436C119.128 134.181 108.882 142.872 108.548 142.535C108.181 142.166 113.594 136.01 121.805 129.398C122.029 130.126 123.152 133.724 123.152 133.724C125.491 140.61 125.135 139.968 125.451 139.359L133.171 128.856L138.658 149.868C138.658 149.868 153.608 115.447 155.064 112.274L151.857 110.858C151.685 110.782 151.538 110.659 151.434 110.503C151.329 110.347 151.271 110.165 151.266 109.977C151.26 109.789 151.309 109.604 151.405 109.443C151.501 109.281 151.641 109.15 151.808 109.065L159.315 105.248C159.448 105.18 159.595 105.143 159.744 105.14C159.893 105.137 160.041 105.168 160.177 105.229C160.313 105.291 160.433 105.383 160.528 105.498C160.624 105.613 160.692 105.747 160.728 105.892L162.729 113.907C162.774 114.087 162.767 114.276 162.709 114.452C162.652 114.629 162.546 114.786 162.404 114.905C162.262 115.024 162.089 115.101 161.905 115.127C161.721 115.153 161.534 115.128 161.364 115.053Z" fill="#32CC4A"/>
<path d="M159.764 105.137C160.808 105.137 160.592 105.348 162.728 113.904C162.773 114.084 162.767 114.273 162.71 114.45C162.652 114.627 162.547 114.784 162.405 114.904C162.262 115.023 162.09 115.101 161.906 115.127C161.722 115.153 161.534 115.127 161.364 115.052L158.122 113.62C155.785 118.717 138.286 159.311 137.856 159.904C137.63 159.469 131.777 136.26 131.64 136.26C125.777 143.877 128.234 140.66 124.107 146.32C123.828 145.298 120.547 133.575 120.52 133.436C119.241 134.121 108.862 142.85 108.548 142.535C107.88 141.866 116.684 133.725 118.275 132.316C118.436 132.173 120.931 130.103 121.805 129.399C122.029 130.127 123.152 133.725 123.152 133.725C125.492 140.62 125.135 139.967 125.451 139.36L133.171 128.857L138.658 149.869C138.658 149.869 153.608 115.448 155.064 112.274L151.857 110.859C151.685 110.783 151.538 110.66 151.434 110.504C151.329 110.348 151.271 110.166 151.265 109.978C151.26 109.79 151.309 109.605 151.405 109.443C151.501 109.282 151.641 109.151 151.808 109.066C159.97 104.913 159.428 105.137 159.764 105.137ZM159.764 103.676C158.933 103.676 159.129 103.701 151.146 107.761C150.732 107.971 150.387 108.295 150.149 108.693C149.912 109.092 149.793 109.55 149.806 110.014C149.818 110.478 149.962 110.929 150.221 111.314C150.48 111.7 150.842 112.004 151.267 112.191L153.12 113.01C151.895 115.696 140.637 141.621 139.009 145.388L133.806 125.525L125.659 136.564C123.736 130.789 124.441 133.004 122.568 126.907C118.221 130.285 114.12 133.968 110.295 137.928C107.343 141.082 106.344 142.387 107.511 143.562C109.143 145.205 110.973 142.537 119.627 135.871C119.801 136.48 123.498 149.631 123.498 149.631L131.023 139.42C137.192 163.418 135.862 159.243 137.65 162.66C139.537 160.075 139.742 160.006 140.994 156.678C141.994 154.016 158.704 115.861 158.849 115.54C160.833 116.416 161.091 116.6 161.766 116.6C162.138 116.599 162.506 116.514 162.84 116.351C163.174 116.187 163.467 115.95 163.696 115.656C163.925 115.363 164.085 115.021 164.162 114.657C164.24 114.293 164.233 113.916 164.144 113.555L162.143 105.542C162.012 105.009 161.707 104.537 161.275 104.199C160.844 103.86 160.312 103.677 159.764 103.676V103.676Z" fill="#161617"/>
</g>
<defs>
<clipPath id="clip0_17_481">
<rect width="174" height="156" fill="white"/>
</clipPath>
</defs>
</svg>
